<svg xmlns="http://www.w3.org/2000/svg" viewBox="0 0 1130.93 293.43"><defs><style>.cls-1{fill:#194378;}.cls-2{fill:#fff;}.cls-3{fill:#57bceb;}</style></defs><g id="background"><rect class="cls-1" width="1130.93" height="293.43"/></g><g id="Leuven.AI"><path class="cls-2" d="M353.57,97.48h24.26v74.8h43.6v21.63H353.57Z"/><path class="cls-2" d="M436.09,97.48h74.37v20H460.35v17h45.83v19.4H460.35v18.34h51.46v21.63H436.09Z"/><path class="cls-2" d="M609.28,154.05q.39,41.91-40.66,41.9T528,154.07V97.48h24.26v58.05q-.4,18.79,16.39,18.79T585,155.53v-58h24.26Z"/><path class="cls-2" d="M676.27,193.91H648.33L618.92,97.48h25.39l18.24,71.73h.32l18.24-71.73H706.5Z"/><path class="cls-2" d="M716.21,97.48h74.37v20H740.47v17H786.3v19.4H740.47v18.34h51.46v21.63H716.21Z"/><path class="cls-2" d="M808.49,97.48h25l32.46,59.44h.26V97.48H889v96.43H864L831.55,133.8h-.26v60.11h-22.8Z"/><path class="cls-2" d="M908.94,168.85H933.2v25.06H908.94Z"/><path class="cls-2" d="M976.8,97.48h24.74l35,96.43h-25.37l-5.75-17.28H972.78l-5.88,17.28h-25ZM978.41,158h21.21l-10.35-33.85H989Z"/><path class="cls-2" d="M1046.59,97.48h24.26v96.43h-24.26Z"/></g><g id="Brain"><path class="cls-3" d="M151.27,172.92,127.52,159.2V133.42l23.77-13.78a6.92,6.92,0,0,0,3.43-6V84.56a6.9,6.9,0,0,0-3.44-6l-11-6.38a8.8,8.8,0,1,0-8.78,9.33,8.7,8.7,0,0,0,3.81-.87l9.63,5.57V112l-23.77,13.78a6.87,6.87,0,0,0-3.43,5.95v29.16a6.89,6.89,0,0,0,3.44,6l23.76,13.71v25.74l-9.53,5.51a8.79,8.79,0,1,0,4.86,8.52l11-6.38a6.91,6.91,0,0,0,3.44-6V178.88A6.89,6.89,0,0,0,151.27,172.92Z"/><path class="cls-3" d="M293.65,106.37,269.88,92.56V65.12a6.91,6.91,0,0,0-3.44-6l-58.84-34a6.89,6.89,0,0,0-6.9,0L177,39,153.25,25.22a6.91,6.91,0,0,0-6.91,0l-58.84,34a6.91,6.91,0,0,0-3.44,6V92.56L60.28,106.37a6.91,6.91,0,0,0-3.43,5.95v68a6.89,6.89,0,0,0,3.45,6L84,200l.1,27.51a6.88,6.88,0,0,0,3.44,5.93l58.84,34a6.8,6.8,0,0,0,3.44.92,6.92,6.92,0,0,0,3.47-.93L177,253.5l23.71,13.84a6.92,6.92,0,0,0,3.47.93,6.8,6.8,0,0,0,3.44-.92l58.84-34a6.89,6.89,0,0,0,3.45-5.93L270,200l23.67-13.66a6.9,6.9,0,0,0,3.44-6v-68A6.89,6.89,0,0,0,293.65,106.37ZM149.77,258,93.86,225.74l-.09-25.81,7.08-4.09a8.68,8.68,0,0,0,4,.95,8.8,8.8,0,1,0-8.77-9.5l-7.2,4.16L66.66,178.64V151.22l11.82,0a8.8,8.8,0,1,0-.09-9.81l-11.73,0V114l22.2-12.88,7.2,4.16a8.8,8.8,0,1,0,4.69-8.62l-6.88-4V66.81l55.91-32.26,22.05,12.83v94H165a8.81,8.81,0,1,0,0,9.83h6.85v94Zm137.5-116.6-11.73,0a8.79,8.79,0,1,0-.09,9.81l11.82,0v27.42l-22.19,12.81-7.2-4.16a8.79,8.79,0,1,0-8.77,9.5,8.68,8.68,0,0,0,4-.95l7.08,4.09-.09,25.81L204.16,258l-22-12.87v-94H189a8.8,8.8,0,1,0,0-9.83h-6.85v-94l22-12.83,55.9,32.26V92.68l-6.89,4a8.79,8.79,0,1,0,4.69,8.62l7.2-4.16L287.27,114Z"/><path class="cls-3" d="M232.8,125.78,209,112V86.25l9.64-5.57a8.66,8.66,0,0,0,3.8.87,8.8,8.8,0,1,0-8.78-9.32l-11,6.37a6.9,6.9,0,0,0-3.44,6v29.12a6.9,6.9,0,0,0,3.43,6l23.77,13.78V159.2l-23.76,13.72a6.88,6.88,0,0,0-3.44,6V208a6.9,6.9,0,0,0,3.44,6l11,6.38a8.8,8.8,0,1,0,4.86-8.52L209,206.31V180.57l23.75-13.71h0a6.92,6.92,0,0,0,3.44-6V131.73A6.9,6.9,0,0,0,232.8,125.78Z"/></g></svg>